<svg id="Слой_1" data-name="Слой 1" xmlns="http://www.w3.org/2000/svg" viewBox="0 0 603 776.54"><title>Безымянный-3</title><g id="Ellipse_3" data-name="Ellipse 3"><circle cx="24.4" cy="171.82" r="12.07" style="fill:#dd6a3e"/></g><g id="Ellipse_3_copy" data-name="Ellipse 3 copy"><circle cx="510.82" cy="70.24" r="12.07" transform="translate(-26.39 85.22) rotate(-13.28)" style="fill:#487ff6"/></g><g id="Ellipse_3_copy_2" data-name="Ellipse 3 copy 2"><circle cx="590.93" cy="620.52" r="12.07" style="fill:#487ff6"/></g><g id="Ellipse_3_copy_3" data-name="Ellipse 3 copy 3"><circle cx="349.22" cy="703.76" r="12.07" transform="translate(-458.52 723.06) rotate(-67.5)" style="fill:#487ff6"/></g><g id="Ellipse_4" data-name="Ellipse 4"><circle cx="538.22" cy="611.35" r="23.68" transform="translate(-81.53 21.99) rotate(-5.65)" style="fill:#db7ab9"/></g><g id="Ellipse_4_copy_14" data-name="Ellipse 4 copy 14"><circle cx="388.69" cy="763.67" r="17.18" transform="translate(-77.07 -4.55) rotate(-4.07)" style="fill:#f1d433"/></g><g id="Ellipse_4_copy_15" data-name="Ellipse 4 copy 15"><circle cx="169.93" cy="658.11" r="20.9" transform="translate(-530.81 686.41) rotate(-80.78)" style="fill:#dd6a3e"/></g><g id="Ellipse_4_copy_17" data-name="Ellipse 4 copy 17"><circle cx="417.48" cy="162.65" r="20.9" transform="translate(-16.65 308.82) rotate(-45)" style="fill:#dd6a3e"/></g><g id="Ellipse_4_copy_16" data-name="Ellipse 4 copy 16"><circle cx="101.95" cy="13.47" r="13.47" style="fill:#db7ab9"/></g><g id="Ellipse_4_copy_16-2" data-name="Ellipse 4 copy 16"><circle cx="557.36" cy="434.6" r="13.47" style="fill:#dd6a3e"/></g><g id="Ellipse_4_copy_12" data-name="Ellipse 4 copy 12"><circle cx="14.18" cy="729.5" r="10.22" style="fill:#487ff6"/></g><g id="Ellipse_4_copy_11" data-name="Ellipse 4 copy 11"><circle cx="588.37" cy="40.99" r="6.97" transform="translate(-17.59 102.25) rotate(-13.28)" style="fill:#f1d433"/></g><g id="Ellipse_4_copy_18" data-name="Ellipse 4 copy 18"><circle cx="330.18" cy="169.15" r="6.97" transform="translate(-53.94 46.36) rotate(-13.28)" style="fill:#f1d433"/></g><g id="Ellipse_4_copy_8" data-name="Ellipse 4 copy 8"><path d="M600.44,222.11a7,7,0,1,0,7,7A7,7,0,0,0,600.44,222.11Z" transform="translate(-23.91 -34.02)" style="fill:#db7ab9"/></g><g id="Ellipse_4_copy_22" data-name="Ellipse 4 copy 22"><circle cx="212.23" cy="113.43" r="6.97" transform="translate(-41.96 149.27) rotate(-45)" style="fill:#487ff6"/></g><g id="Ellipse_4_copy_21" data-name="Ellipse 4 copy 21"><path d="M489,796.64a7,7,0,1,0,7,7A7,7,0,0,0,489,796.64Z" transform="translate(-23.91 -34.02)" style="fill:#d87faf"/></g><g id="Ellipse_4_copy_20" data-name="Ellipse 4 copy 20"><path d="M30.88,358.15a7,7,0,1,0,7,7A7,7,0,0,0,30.88,358.15Z" transform="translate(-23.91 -34.02)" style="fill:#db7ab9"/></g><g id="Ellipse_4_copy_7" data-name="Ellipse 4 copy 7"><path d="M73.56,647.7a7,7,0,1,0,7,7A7,7,0,0,0,73.56,647.7Z" transform="translate(-23.91 -34.02)" style="fill:#f1d433"/></g><g id="Ellipse_4_copy" data-name="Ellipse 4 copy"><circle cx="95.45" cy="227.07" r="30.18" style="fill:#f1d433"/></g><g id="Ellipse_4_copy_4" data-name="Ellipse 4 copy 4"><circle cx="520.34" cy="263.32" r="15.79" style="fill:#f1d433"/></g><g id="Ellipse_4_copy_4-2" data-name="Ellipse 4 copy 4"><path d="M89.46,482.32a15.79,15.79,0,1,0,15.79,15.79A15.79,15.79,0,0,0,89.46,482.32Z" transform="translate(-23.91 -34.02)" style="fill:#487ff6"/></g></svg>