<svg id="Слой_1" data-name="Слой 1" xmlns="http://www.w3.org/2000/svg" viewBox="0 0 289.84 373.25"><title>cccc</title><g id="Ellipse_3" data-name="Ellipse 3"><circle cx="11.73" cy="82.58" r="5.8" style="fill:#dd6a3e"/></g><g id="Ellipse_3_copy" data-name="Ellipse 3 copy"><circle cx="234.04" cy="17.41" r="5.8" style="fill:#487ff6"/></g><g id="Ellipse_3_copy_2" data-name="Ellipse 3 copy 2"><circle cx="284.03" cy="298.26" r="5.8" style="fill:#487ff6"/></g><g id="Ellipse_3_copy_3" data-name="Ellipse 3 copy 3"><circle cx="171.03" cy="336.94" r="5.8" transform="translate(-66.43 16.72) rotate(-9.22)" style="fill:#487ff6"/></g><g id="Ellipse_4" data-name="Ellipse 4"><circle cx="247.2" cy="277.5" r="11.38" style="fill:#db7ab9"/></g><g id="Ellipse_4_copy_14" data-name="Ellipse 4 copy 14"><path d="M190,357.47a8.26,8.26,0,1,0,8.26,8.26A8.26,8.26,0,0,0,190,357.47Z" transform="translate(-14.66 -15.02)" style="fill:#f1d433"/></g><g id="Ellipse_4_copy_15" data-name="Ellipse 4 copy 15"><circle cx="70.19" cy="299.97" r="10.04" style="fill:#dd6a3e"/></g><g id="Ellipse_4_copy_17" data-name="Ellipse 4 copy 17"><circle cx="203.84" cy="76.85" r="10.04" transform="translate(40.17 220.74) rotate(-67.5)" style="fill:#dd6a3e"/></g><g id="Ellipse_4_copy_16" data-name="Ellipse 4 copy 16"><circle cx="63.67" cy="21.49" r="6.47" transform="translate(-11.22 36.29) rotate(-45)" style="fill:#db7ab9"/></g><g id="Ellipse_4_copy_16-2" data-name="Ellipse 4 copy 16"><circle cx="267.9" cy="208.89" r="6.47" style="fill:#dd6a3e"/></g><g id="Ellipse_4_copy_12" data-name="Ellipse 4 copy 12"><circle cx="6.82" cy="350.64" r="4.91" style="fill:#487ff6"/></g><g id="Ellipse_4_copy_11" data-name="Ellipse 4 copy 11"><circle cx="271.31" cy="3.35" r="3.35" style="fill:#f1d433"/></g><g id="Ellipse_4_copy_18" data-name="Ellipse 4 copy 18"><circle cx="147.21" cy="64.95" r="3.35" style="fill:#f1d433"/></g><g id="Ellipse_4_copy_8" data-name="Ellipse 4 copy 8"><path d="M291.78,105.43a3.35,3.35,0,1,0,3.35,3.35A3.35,3.35,0,0,0,291.78,105.43Z" transform="translate(-14.66 -15.02)" style="fill:#db7ab9"/></g><g id="Ellipse_4_copy_22" data-name="Ellipse 4 copy 22"><path d="M105.18,49.84a3.35,3.35,0,1,0,3.35,3.35A3.35,3.35,0,0,0,105.18,49.84Z" transform="translate(-14.66 -15.02)" style="fill:#487ff6"/></g><g id="Ellipse_4_copy_21" data-name="Ellipse 4 copy 21"><path d="M238.21,381.58a3.35,3.35,0,1,0,3.35,3.35A3.35,3.35,0,0,0,238.21,381.58Z" transform="translate(-14.66 -15.02)" style="fill:#d87faf"/></g><g id="Ellipse_4_copy_20" data-name="Ellipse 4 copy 20"><path d="M18,170.82a3.35,3.35,0,1,0,3.35,3.34A3.34,3.34,0,0,0,18,170.82Z" transform="translate(-14.66 -15.02)" style="fill:#db7ab9"/></g><g id="Ellipse_4_copy_7" data-name="Ellipse 4 copy 7"><path d="M38.53,310a3.35,3.35,0,1,0,3.34,3.35A3.35,3.35,0,0,0,38.53,310Z" transform="translate(-14.66 -15.02)" style="fill:#f1d433"/></g><g id="Ellipse_4_copy" data-name="Ellipse 4 copy"><circle cx="60.54" cy="124.17" r="14.51" transform="translate(-84.73 64.16) rotate(-45)" style="fill:#f1d433"/></g><g id="Ellipse_4_copy_4" data-name="Ellipse 4 copy 4"><circle cx="264.77" cy="141.59" r="7.59" transform="translate(-33.92 29.22) rotate(-9.22)" style="fill:#f1d433"/></g><g id="Ellipse_4_copy_4-2" data-name="Ellipse 4 copy 4"><path d="M46.17,230.5a7.59,7.59,0,1,0,7.59,7.59A7.59,7.59,0,0,0,46.17,230.5Z" transform="translate(-14.66 -15.02)" style="fill:#487ff6"/></g></svg>