<svg width="286" height="483.2" xmlns="http://www.w3.org/2000/svg">
 <style type="text/css">.st0{fill:none;}
	.st1{fill:#DD6A3E;}
	.st2{fill:#487FF6;}
	.st3{fill:#DB7AB9;}
	.st4{fill:#F1D433;}
	.st5{fill:#D87FAF;}</style>
 <g>
  <rect height="485.2" width="288" class="st0" y="-1" x="-1" id="canvas_background"/>
 </g>
 <g>
  <g id="Ellipse_3">
   <circle r="5.4" cy="149.8" cx="21.9" class="st1" id="svg_1"/>
  </g>
  <g id="Ellipse_3-2">
   <circle r="5.4" cy="51.8" cx="174.2" class="st1" id="svg_2"/>
  </g>
  <g id="Ellipse_3_copy">
   <circle r="5.4" cy="89.1" cx="228.8" class="st2" id="svg_3"/>
  </g>
  <g id="Ellipse_3_copy_3">
   <circle r="5.4" cy="358.5" cx="156.5" class="st2" id="svg_6"/>
  </g>
  <g id="Ellipse_4">
   <circle r="10.6" cy="317.2" cx="241" class="st3" id="svg_7"/>
  </g>
  <g id="Ellipse_4_copy_14">
   <path d="m174.2,391.6c-4.2,0 -7.7,3.4 -7.7,7.7s3.4,7.7 7.7,7.7s7.7,-3.4 7.7,-7.7c0,0 0,0 0,0c0,-4.2 -3.5,-7.7 -7.7,-7.7z" class="st4" id="svg_8"/>
  </g>
  <g id="Ellipse_4_copy_15">
   <ellipse ry="9.3" rx="9.4" cy="338.1" cx="76.3" class="st1" transform="matrix(0.1602,-0.9871,0.9871,0.1602,-269.6517,359.2654) " id="svg_10"/>
  </g>
  <g id="Ellipse_4_copy_17">
   <circle r="9.4" cy="130.5" cx="187" class="st1" id="svg_12"/>
  </g>
  <g id="Ellipse_4_copy_16">
   <circle r="6" cy="79" cx="56.6" class="st3" id="svg_13"/>
  </g>
  <g id="Ellipse_4_copy_16-2">
   <ellipse ry="6" rx="6" cy="267.3" cx="260.3" class="st1" transform="matrix(0.9871,-0.1602,0.1602,0.9871,-39.4702,45.1642) " id="svg_14"/>
  </g>
  <g id="Ellipse_4_copy_12">
   <path d="m17.3,394.7c-2.5,0 -4.6,2 -4.6,4.6c0,2.5 2,4.6 4.6,4.6c2.5,0 4.6,-2 4.6,-4.6c0,-2.6 -2,-4.6 -4.6,-4.6c0,0 0,0 0,0z" class="st2" id="svg_15"/>
  </g>
  <g id="Ellipse_4_copy_11">
   <path d="m263.5,72.9c-1.7,0 -3.1,1.4 -3.1,3.1s1.4,3.1 3.1,3.1c1.7,0 3.1,-1.4 3.1,-3.1c0,0 0,0 0,0c0,-1.7 -1.4,-3.1 -3.1,-3.1c0,0 0,0 0,0z" class="st4" id="svg_16"/>
  </g>
  <g id="Ellipse_4_copy_18">
   <path d="m148,130.3c-1.7,0 -3.1,1.4 -3.1,3.1c0,1.7 1.4,3.1 3.1,3.1c1.7,0 3.1,-1.4 3.1,-3.1c0,0 0,0 0,0c0,-1.7 -1.4,-3.1 -3.1,-3.1l0,0z" class="st4" id="svg_17"/>
  </g>
  <g id="Ellipse_4_copy_8">
   <path d="m268.9,157.1c-1.7,0 -3.1,1.4 -3.1,3.1c0,1.7 1.4,3.1 3.1,3.1c1.7,0 3.1,-1.4 3.1,-3.1c0,0 0,0 0,0c0,-1.8 -1.4,-3.1 -3.1,-3.1z" class="st3" id="svg_18"/>
  </g>
  <g id="Ellipse_4_copy_22">
   <path d="m95.2,105.3c-1.7,0 -3.1,1.4 -3.1,3.1s1.4,3.1 3.1,3.1c1.7,0 3.1,-1.4 3.1,-3.1c0,0 0,0 0,0c0.1,-1.7 -1.3,-3.1 -3.1,-3.1z" class="st2" id="svg_20"/>
  </g>
  <g id="Ellipse_4_copy_21">
   <path d="m219,414.1c-1.7,0 -3.1,1.4 -3.1,3.1c0,1.7 1.4,3.1 3.1,3.1c1.7,0 3.1,-1.4 3.1,-3.1c0,0 0,0 0,0c0.1,-1.7 -1.3,-3.1 -3.1,-3.1c0,0 0,0 0,0z" class="st5" id="svg_21"/>
  </g>
  <g id="Ellipse_4_copy_20">
   <path d="m14.1,217.9c-1.7,0 -3.1,1.4 -3.1,3.1s1.4,3.1 3.1,3.1c1.7,0 3.1,-1.4 3.1,-3.1c0,0 0,0 0,0c0,-1.7 -1.4,-3.1 -3.1,-3.1z" class="st3" id="svg_22"/>
  </g>
  <g id="Ellipse_4_copy_7">
   <circle r="3.1" cy="350.6" cx="33.2" class="st4" id="svg_23"/>
  </g>
  <g id="Ellipse_4_copy">
   <circle r="13.5" cy="174.5" cx="53.7" class="st4" id="svg_24"/>
  </g>
  <g id="Ellipse_4_copy_4">
   <circle r="7.1" cy="190.7" cx="243.8" class="st4" id="svg_25"/>
  </g>
  <g id="Ellipse_4_copy_4-3">
   <circle r="7.1" cy="280.5" cx="40.3" class="st2" id="svg_27"/>
  </g>
  <g id="Ellipse_4_copy_4-4">
   <path d="m85.8,417.2c-3.9,0 -7.1,3.2 -7.1,7.1c0,3.9 3.2,7.1 7.1,7.1c3.9,0 7.1,-3.2 7.1,-7.1l0,0c-0.1,-3.9 -3.2,-7.1 -7.1,-7.1z" class="st2" id="svg_28"/>
  </g>
 </g>
</svg>