<?xml version="1.0" encoding="utf-8"?>
<svg version="1.1" id="Слой_1" xmlns="http://www.w3.org/2000/svg" xmlns:xlink="http://www.w3.org/1999/xlink" x="0px" y="0px"
	 viewBox="0 0 286 483.2" style="enable-background:new 0 0 286 483.2;" xml:space="preserve">
<style type="text/css">
	.st0{fill:none;}
	.st1{fill:#DD6A3E;}
	.st2{fill:#487FF6;}
	.st3{fill:#DB7AB9;}
	.st4{fill:#F1D433;}
	.st5{fill:#D87FAF;}
</style>
<g>
	<rect id="canvas_background" x="-1" y="-1" class="st0" width="288" height="485.2"/>
</g>
<g id="Ellipse_3">
	<circle id="svg_1" class="st1" cx="21.9" cy="149.8" r="5.4"/>
</g>
<g id="Ellipse_3-2">
	<circle id="svg_2" class="st1" cx="174.2" cy="51.8" r="5.4"/>
</g>
<g id="Ellipse_3_copy">
	<circle id="svg_3" class="st2" cx="228.8" cy="89.1" r="5.4"/>
</g>
<g id="Ellipse_3_copy_3">
	<circle id="svg_6" class="st2" cx="156.5" cy="340.5" r="5.4"/>
</g>
<g id="Ellipse_4">
	<circle id="svg_7" class="st3" cx="241" cy="299.2" r="10.6"/>
</g>
<g id="Ellipse_4_copy_14">
	<path id="svg_8" class="st4" d="M174.2,391.6c-4.2,0-7.7,3.4-7.7,7.7s3.4,7.7,7.7,7.7s7.7-3.4,7.7-7.7l0,0
		C181.9,395.1,178.4,391.6,174.2,391.6z"/>
</g>
<g id="Ellipse_4_copy_15">
	
		<ellipse id="svg_10" transform="matrix(0.1602 -0.9871 0.9871 0.1602 -251.8936 344.1565)" class="st1" cx="76.3" cy="320.1" rx="9.4" ry="9.3"/>
</g>
<g id="Ellipse_4_copy_17">
	<circle id="svg_12" class="st1" cx="187" cy="130.5" r="9.4"/>
</g>
<g id="Ellipse_4_copy_16">
	<circle id="svg_13" class="st3" cx="56.6" cy="79" r="6"/>
</g>
<g id="Ellipse_4_copy_16-2">
	<ellipse id="svg_14" class="st1" cx="260.3" cy="243.3" rx="6" ry="6"/>
</g>
<g id="Ellipse_4_copy_12">
	<path id="svg_15" class="st2" d="M17.3,394.7c-2.5,0-4.6,2-4.6,4.6c0,2.5,2,4.6,4.6,4.6c2.5,0,4.6-2,4.6-4.6S19.9,394.7,17.3,394.7
		L17.3,394.7z"/>
</g>
<g id="Ellipse_4_copy_11">
	<path id="svg_16" class="st4" d="M263.5,72.9c-1.7,0-3.1,1.4-3.1,3.1s1.4,3.1,3.1,3.1s3.1-1.4,3.1-3.1l0,0
		C266.6,74.3,265.2,72.9,263.5,72.9L263.5,72.9z"/>
</g>
<g id="Ellipse_4_copy_18">
	<path id="svg_17" class="st4" d="M148,130.3c-1.7,0-3.1,1.4-3.1,3.1c0,1.7,1.4,3.1,3.1,3.1c1.7,0,3.1-1.4,3.1-3.1l0,0
		C151.1,131.7,149.7,130.3,148,130.3L148,130.3z"/>
</g>
<g id="Ellipse_4_copy_8">
	<path id="svg_18" class="st3" d="M268.9,157.1c-1.7,0-3.1,1.4-3.1,3.1c0,1.7,1.4,3.1,3.1,3.1s3.1-1.4,3.1-3.1l0,0
		C272,158.4,270.6,157.1,268.9,157.1z"/>
</g>
<g id="Ellipse_4_copy_22">
	<path id="svg_20" class="st2" d="M95.2,105.3c-1.7,0-3.1,1.4-3.1,3.1s1.4,3.1,3.1,3.1s3.1-1.4,3.1-3.1l0,0
		C98.4,106.7,97,105.3,95.2,105.3z"/>
</g>
<g id="Ellipse_4_copy_21">
	<path id="svg_21" class="st5" d="M219,414.1c-1.7,0-3.1,1.4-3.1,3.1s1.4,3.1,3.1,3.1c1.7,0,3.1-1.4,3.1-3.1l0,0
		C222.2,415.5,220.8,414.1,219,414.1L219,414.1z"/>
</g>
<g id="Ellipse_4_copy_20">
	<path id="svg_22" class="st3" d="M14.1,217.9c-1.7,0-3.1,1.4-3.1,3.1s1.4,3.1,3.1,3.1s3.1-1.4,3.1-3.1l0,0
		C17.2,219.3,15.8,217.9,14.1,217.9z"/>
</g>
<g id="Ellipse_4_copy_7">
	<circle id="svg_23" class="st4" cx="33.2" cy="350.6" r="3.1"/>
</g>
<g id="Ellipse_4_copy">
	<circle id="svg_24" class="st4" cx="53.7" cy="174.5" r="13.5"/>
</g>
<g id="Ellipse_4_copy_4">
	<circle id="svg_25" class="st4" cx="243.8" cy="190.7" r="7.1"/>
</g>
<g id="Ellipse_4_copy_4-3">
	<circle id="svg_27" class="st2" cx="40.3" cy="267.5" r="7.1"/>
</g>
<g id="Ellipse_4_copy_4-4">
	<path id="svg_28" class="st2" d="M85.8,417.2c-3.9,0-7.1,3.2-7.1,7.1s3.2,7.1,7.1,7.1s7.1-3.2,7.1-7.1l0,0
		C92.8,420.4,89.7,417.2,85.8,417.2z"/>
</g>
</svg>
