<?xml version="1.0" encoding="utf-8"?>
<!-- Generator: Adobe Illustrator 23.0.6, SVG Export Plug-In . SVG Version: 6.00 Build 0)  -->
<svg version="1.1" id="Слой_1" xmlns="http://www.w3.org/2000/svg" xmlns:xlink="http://www.w3.org/1999/xlink" x="0px" y="0px"
	 viewBox="0 0 286 483.2" style="enable-background:new 0 0 286 483.2;" xml:space="preserve">
<style type="text/css">
	.st0{fill:none;}
	.st1{fill:#DD6A3E;}
	.st2{fill:#DB7AB9;}
	.st3{fill:#487FF6;}
	.st4{fill:#F1D433;}
	.st5{fill:#D87FAF;}
</style>
<g>
	<rect id="canvas_background" x="-1" y="-1" class="st0" width="288" height="485.2"/>
</g>
<g id="Ellipse_3">
	<circle id="svg_1" class="st1" cx="32.1" cy="160.7" r="5.4"/>
</g>
<g id="Ellipse_3-2">
	<circle id="svg_2" class="st1" cx="187" cy="137.9" r="5.4"/>
</g>
<g id="Ellipse_3_copy">
	<circle id="svg_3" class="st2" cx="33.1" cy="241.6" r="5.4"/>
</g>
<g id="Ellipse_3_copy_3">
	<circle id="svg_6" class="st3" cx="169.5" cy="392.5" r="5.4"/>
</g>
<g id="Ellipse_4">
	<circle id="svg_7" class="st2" cx="248.3" cy="107.9" r="10.6"/>
</g>
<g id="Ellipse_4_copy_15">
	
		<ellipse id="svg_10" transform="matrix(0.1602 -0.9871 0.9871 0.1602 -152.3183 495.608)" class="st1" cx="215.1" cy="337.3" rx="9.4" ry="9.3"/>
</g>
<g id="Ellipse_4_copy_12">
	<path id="svg_15" class="st3" d="M148.1,148.7c-2.5,0-4.6,2-4.6,4.6c0,2.5,2,4.6,4.6,4.6c2.5,0,4.6-2,4.6-4.6
		S150.7,148.7,148.1,148.7L148.1,148.7z"/>
</g>
<g id="Ellipse_4_copy_11">
	<path id="svg_16" class="st4" d="M24.6,358.9c-1.7,0-3.1,1.4-3.1,3.1c0,1.7,1.4,3.1,3.1,3.1s3.1-1.4,3.1-3.1l0,0
		C27.7,360.3,26.3,358.9,24.6,358.9L24.6,358.9z"/>
</g>
<g id="Ellipse_4_copy_18">
	<path id="svg_17" class="st4" d="M229.7,274.2c-1.7,0-3.1,1.4-3.1,3.1s1.4,3.1,3.1,3.1c1.7,0,3.1-1.4,3.1-3.1l0,0
		C232.8,275.6,231.4,274.2,229.7,274.2L229.7,274.2z"/>
</g>
<g id="Ellipse_4_copy_8">
	<path id="svg_18" class="st2" d="M250.9,362c-1.7,0-3.1,1.4-3.1,3.1c0,1.7,1.4,3.1,3.1,3.1s3.1-1.4,3.1-3.1l0,0
		C254,363.3,252.6,362,250.9,362z"/>
</g>
<g id="Ellipse_4_copy_22">
	<path id="svg_20" class="st3" d="M84.8,107.9c-1.7,0-3.1,1.4-3.1,3.1s1.4,3.1,3.1,3.1s3.1-1.4,3.1-3.1l0,0
		C88,109.3,86.6,107.9,84.8,107.9z"/>
</g>
<g id="Ellipse_4_copy_21">
	<path id="svg_21" class="st5" d="M99.7,343.6c-1.7,0-3.1,1.4-3.1,3.1s1.4,3.1,3.1,3.1c1.7,0,3.1-1.4,3.1-3.1l0,0
		C102.9,345,101.5,343.6,99.7,343.6L99.7,343.6z"/>
</g>
<g id="Ellipse_4_copy_20">
	<path id="svg_22" class="st3" d="M247.8,172.2c-1.7,0-3.1,1.4-3.1,3.1s1.4,3.1,3.1,3.1s3.1-1.4,3.1-3.1l0,0
		C250.9,173.6,249.5,172.2,247.8,172.2z"/>
</g>
<g id="Ellipse_4_copy_7">
	<circle id="svg_23" class="st4" cx="138.5" cy="111" r="3.1"/>
</g>
<g id="Ellipse_4_copy">
	<circle id="svg_24" class="st4" cx="71.3" cy="160.7" r="13.5"/>
</g>
<g id="Ellipse_4_copy_4">
	<circle id="svg_25" class="st4" cx="131.4" cy="341.3" r="7.1"/>
</g>
<g id="Ellipse_4_copy_4-3">
	<circle id="svg_27" class="st3" cx="58.8" cy="313.6" r="7.1"/>
</g>
<g id="Ellipse_4_copy_4-4">
	<path id="svg_28" class="st3" d="M85.8,417.2c-3.9,0-7.1,3.2-7.1,7.1s3.2,7.1,7.1,7.1s7.1-3.2,7.1-7.1l0,0
		C92.8,420.4,89.7,417.2,85.8,417.2z"/>
</g>
</svg>
