<svg width="324.13" height="185.95" xmlns="http://www.w3.org/2000/svg">
 <title>last_last</title>

 <g>
  <title>background</title>
  <rect fill="none" id="canvas_background" height="402" width="582" y="-1" x="-1"/>
 </g>
 <g>
  <title>Layer 1</title>
  <path stroke="null" id="svg_1" fill="#f63" d="m324.879982,0c-19.550055,13.06016 -105.626554,64.989365 -192.888515,28.240084c-55.264569,-23.28727 -102.090265,-18.364594 -132.741456,-9.433454c0,1.72796 0,3.355456 0,4.832259q0.090416,7.5548 0.190879,15.069415c0.462129,40.134876 0.482221,80.279798 0.502314,120.414674q0,13.703122 0,27.406243l98.35305,-0.030139q113.201447,0 226.412941,0.301388c-0.210972,-31.806512 -0.341573,-59.664838 -0.341573,-64.587514c0,-40.185107 0.070324,-80.279798 0.502314,-120.404628c0,-0.59273 0.010046,-1.165368 0.010046,-1.80833z"/>
 </g>
</svg>