<svg width="324.13" height="153.83" xmlns="http://www.w3.org/2000/svg">
 <title>059898y64509650967</title>

 <g>
  <title>background</title>
  <rect fill="none" id="canvas_background" height="402" width="582" y="-1" x="-1"/>
 </g>
 <g>
  <title>Layer 1</title>
  <path stroke="null" id="svg_1" fill="#f63" d="m-2.786755,39.165069c0.456943,39.012755 0.487406,78.025509 0.507714,117.038264c5.361461,-0.294474 10.733077,-0.42648 16.104693,-0.345246l26.919004,-0.3554c40.556206,-0.467097 81.13272,-0.487406 121.69908,-0.49756s81.142874,0.07108 121.709234,0.49756q17.790304,0.091389 35.53999,0.558486c2.030857,0 4.061713,0 6.02149,0.101543c-0.091389,-16.947498 -0.14216,-29.44742 -0.14216,-32.625711c0,-40.617131 0.07108,-81.142874 0.507714,-121.69908c0,-0.609257 0,-1.218514 0,-1.837925c-19.760234,13.200568 -106.76213,65.688056 -194.962231,28.543689c-55.807938,-23.537628 -103.137051,-18.562029 -134.117768,-9.534872c0,1.746537 0,3.39153 0,4.88421q0.111697,7.636021 0.21324,15.272041z"/>
 </g>
</svg>