<svg width="604" height="543.2" xmlns="http://www.w3.org/2000/svg">
 <title>wave</title>

 <g>
  <title>background</title>
  <rect fill="none" id="canvas_background" height="545.2" width="606" y="-1" x="-1"/>
 </g>
 <g>
  <title>Layer 1</title>
  <g id="Ellipse_3">
   <circle id="svg_1" fill="#dd6a3e" r="5.4" cy="178.790965" cx="179.913707"/>
  </g>
  <g id="Ellipse_3-2">
   <circle id="svg_2" fill="#dd6a3e" transform="rotate(-9.220000267028809 146.85368347167977,66.65098571777331) " r="5.4" cy="110.270965" cx="327.503707"/>
  </g>
  <g id="Ellipse_3_copy">
   <circle id="svg_3" fill="#487ff6" r="5.4" cy="118.140965" cx="386.803707"/>
  </g>
  <g id="Ellipse_3_copy_2">
   <path id="svg_4" fill="#487ff6" d="m409.783707,468.560965a5.4,5.4 0 1 0 5.4,5.4a5.4,5.4 0 0 0 -5.4,-5.4z"/>
  </g>
  <g id="Ellipse_3_copy_2-2">
   <circle id="svg_5" fill="#487ff6" transform="rotate(-9.220000267028809 147.74365234374997,56.980972290039105) " r="5.4" cy="90.210965" cx="268.843707"/>
  </g>
  <g id="Ellipse_3_copy_3">
   <circle id="svg_6" fill="#487ff6" transform="rotate(-4.070000171661377 126.08380126953114,49.62099456787105) " r="5.4" cy="413.990965" cx="289.093709"/>
  </g>
  <g id="Ellipse_4">
   <circle id="svg_7" fill="#db7ab9" transform="rotate(-5.650000095367432 120.87379455566415,63.120979309082) " r="10.59" cy="386.150966" cx="368.423706"/>
  </g>
  <g id="Ellipse_4_copy_14">
   <path id="svg_8" fill="#f1d433" d="m332.173707,420.630965a7.69,7.69 0 1 0 7.68,7.68a7.68,7.68 0 0 0 -7.68,-7.68z"/>
  </g>
  <g id="Ellipse_4_copy_14-2">
   <path id="svg_9" fill="#f1d433" d="m324.503707,466.350965a7.69,7.69 0 1 0 7.69,7.69a7.68,7.68 0 0 0 -7.69,-7.69z"/>
  </g>
  <g id="Ellipse_4_copy_15">
   <circle id="svg_10" fill="#dd6a3e" transform="rotate(-80.77999877929688 -118.44688415527345,407.7513427734375) " r="9.35" cy="751.690965" cx="-35.626305"/>
  </g>
  <g id="Ellipse_4_copy_15-2">
   <circle id="svg_11" fill="#dd6a3e" r="9.35" cy="481.850965" cx="198.453707"/>
  </g>
  <g id="Ellipse_4_copy_17">
   <circle id="svg_12" fill="#dd6a3e" transform="rotate(-4.730000019073486 142.07368469238318,53.53099822998038) " r="9.35" cy="175.860965" cx="335.623707"/>
  </g>
  <g id="Ellipse_4_copy_16">
   <circle id="svg_13" fill="#db7ab9" transform="rotate(-9.220000267028809 140.97372436523438,48.17096710205076) " r="6.02" cy="118.980965" cx="204.073706"/>
  </g>
  <g id="Ellipse_4_copy_16-2">
   <circle id="svg_14" fill="#dd6a3e" transform="rotate(-9.220000267028809 113.4338302612303,83.24100494384761) " r="6.02" cy="342.430967" cx="380.243707"/>
  </g>
  <g id="Ellipse_4_copy_12">
   <path id="svg_15" fill="#487ff6" d="m175.343707,423.680965a4.57,4.57 0 1 0 4.57,4.57a4.57,4.57 0 0 0 -4.57,-4.57z"/>
  </g>
  <g id="Ellipse_4_copy_11">
   <path id="svg_16" fill="#f1d433" d="m421.503707,101.940965a3.12,3.12 0 1 0 3.12,3.11a3.11,3.11 0 0 0 -3.12,-3.11z"/>
  </g>
  <g id="Ellipse_4_copy_18">
   <path id="svg_17" fill="#f1d433" d="m306.003707,159.270965a3.12,3.12 0 1 0 3.11,3.11a3.11,3.11 0 0 0 -3.11,-3.11z"/>
  </g>
  <g id="Ellipse_4_copy_8">
   <path id="svg_18" fill="#db7ab9" d="m426.883707,186.070965a3.12,3.12 0 1 0 3.12,3.08a3.12,3.12 0 0 0 -3.12,-3.08z"/>
  </g>
  <g id="Ellipse_4_copy_8-2">
   <path id="svg_19" fill="#db7ab9" d="m386.913707,54.920965a3.12,3.12 0 1 0 3.12,3.12a3.12,3.12 0 0 0 -3.12,-3.12z"/>
  </g>
  <g id="Ellipse_4_copy_22">
   <path id="svg_20" fill="#487ff6" d="m253.243707,134.340965a3.12,3.12 0 1 0 3.11,3.12a3.12,3.12 0 0 0 -3.11,-3.12z"/>
  </g>
  <g id="Ellipse_4_copy_21">
   <path id="svg_21" fill="#d87faf" d="m377.033707,443.060965a3.12,3.12 0 1 0 3.12,3.11a3.11,3.11 0 0 0 -3.12,-3.11z"/>
  </g>
  <g id="Ellipse_4_copy_20">
   <path id="svg_22" fill="#db7ab9" d="m172.123707,246.920965a3.12,3.12 0 1 0 3.11,3.12a3.12,3.12 0 0 0 -3.11,-3.12z"/>
  </g>
  <g id="Ellipse_4_copy_7">
   <circle id="svg_23" fill="#f1d433" r="3.12" cy="379.560965" cx="191.213707"/>
  </g>
  <g id="Ellipse_4_copy">
   <circle id="svg_24" fill="#f1d433" r="13.5" cy="203.510965" cx="211.693707"/>
  </g>
  <g id="Ellipse_4_copy_4">
   <circle id="svg_25" fill="#f1d433" transform="rotate(-45 95.70378112792955,267.58084106445307) " r="7.06" cy="450.150967" cx="345.953704"/>
  </g>
  <g id="Ellipse_4_copy_4-2">
   <path id="svg_26" fill="#f1d433" d="m187.093707,44.000965a7.06,7.06 0 1 0 7.06,7.06a7.06,7.06 0 0 0 -7.06,-7.06z"/>
  </g>
  <g id="Ellipse_4_copy_4-3">
   <circle id="svg_27" fill="#487ff6" transform="rotate(-67.5 -71.23699188232423,248.55068969726562) " r="7.06" cy="520.930968" cx="-24.416299"/>
  </g>
  <g id="Ellipse_4_copy_4-4">
   <path id="svg_28" fill="#487ff6" d="m243.773707,446.210965a7.06,7.06 0 1 0 7.06,7.06a7.06,7.06 0 0 0 -7.06,-7.06z"/>
  </g>
 </g>
</svg>