<?xml version="1.0" encoding="utf-8"?>
<!-- Generator: Adobe Illustrator 23.0.6, SVG Export Plug-In . SVG Version: 6.00 Build 0)  -->
<svg version="1.1" id="Слой_1" xmlns="http://www.w3.org/2000/svg" xmlns:xlink="http://www.w3.org/1999/xlink" x="0px" y="0px"
	 viewBox="0 0 337.2 170" style="enable-background:new 0 0 337.2 170;" xml:space="preserve">
<style type="text/css">
	.st0{fill:none;}
	.st1{fill:#FF6633;}
</style>
<title>wave_last_last_last</title>
<g>
	<title>background</title>
	<rect id="canvas_background" x="-1" y="-1" class="st0" width="582" height="402"/>
</g>
<title>Layer 1</title>
<g>
	<path class="st1" d="M341.2,0c0,0-100.8,74-203.1,31.6C79.1,7.1,29.5,13.3-2,22.9C-2.5,30.7-3.4,38.4-4.8,46
		c-1.5,7.8-2.5,15.7-3.1,23.6C-8.2,76.8-7.6,83.9-6.2,91c2.2,12.3,5.5,25.3,2.9,37.7h2.8v8.1h337.8v11.5c1.3,0,2.7,0,4,0v-23.5h-0.8
		L341.2,0z"/>
	<path class="st1" d="M-0.5,136.8H-4v35h341.2v-23.5C224.6,147.5,112,147-0.5,146.9V136.8z"/>
	<path class="st1" d="M-0.5,136.8v10.1c112.6,0.1,225.2,0.5,337.8,1.4v-11.5H-0.5z"/>
</g>
</svg>
