<svg width="400" height="543.2" xmlns="http://www.w3.org/2000/svg">
 <title>wave</title>

 <g>
  <title>background</title>
  <rect fill="none" id="canvas_background" height="545.2" width="402" y="-1" x="-1"/>
 </g>
 <g>
  <title>Layer 1</title>
  <g id="Ellipse_3">
   <circle id="svg_1" fill="#dd6a3e" r="5.4" cy="178.790965" cx="82.911579"/>
  </g>
  <g id="Ellipse_3-2">
   <circle id="svg_2" fill="#dd6a3e" transform="rotate(-9.220000267028809 49.85160827636729,66.65098571777344) " r="5.4" cy="110.270965" cx="230.50158"/>
  </g>
  <g id="Ellipse_3_copy">
   <circle id="svg_3" fill="#487ff6" r="5.4" cy="118.140965" cx="289.801579"/>
  </g>
  <g id="Ellipse_3_copy_2">
   <path id="svg_4" fill="#487ff6" d="m312.781579,468.560965a5.4,5.4 0 1 0 5.4,5.4a5.4,5.4 0 0 0 -5.4,-5.4z"/>
  </g>
  <g id="Ellipse_3_copy_2-2">
   <circle id="svg_5" fill="#487ff6" transform="rotate(-9.220000267028809 50.741584777832095,56.980972290039055) " r="5.4" cy="90.210965" cx="171.841579"/>
  </g>
  <g id="Ellipse_3_copy_3">
   <circle id="svg_6" fill="#487ff6" transform="rotate(-4.070000171661377 29.08159255981439,49.62099456787103) " r="5.4" cy="413.990965" cx="192.091581"/>
  </g>
  <g id="Ellipse_4">
   <circle id="svg_7" fill="#db7ab9" transform="rotate(-5.650000095367432 23.871589660644528,63.12097930908204) " r="10.59" cy="386.150966" cx="271.421578"/>
  </g>
  <g id="Ellipse_4_copy_14">
   <path id="svg_8" fill="#f1d433" d="m235.171579,420.630965a7.69,7.69 0 1 0 7.68,7.68a7.68,7.68 0 0 0 -7.68,-7.68z"/>
  </g>
  <g id="Ellipse_4_copy_14-2">
   <path id="svg_9" fill="#f1d433" d="m227.501579,466.350965a7.69,7.69 0 1 0 7.69,7.69a7.68,7.68 0 0 0 -7.69,-7.69z"/>
  </g>
  <g id="Ellipse_4_copy_15">
   <circle id="svg_10" fill="#dd6a3e" transform="rotate(-80.77999877929688 -215.4484405517579,407.75134277343744) " r="9.35" cy="751.690965" cx="-132.628433"/>
  </g>
  <g id="Ellipse_4_copy_15-2">
   <circle id="svg_11" fill="#dd6a3e" r="9.35" cy="481.850965" cx="101.451579"/>
  </g>
  <g id="Ellipse_4_copy_17">
   <circle id="svg_12" fill="#dd6a3e" transform="rotate(-4.730000019073486 45.07158279418955,53.530998229980554) " r="9.35" cy="175.860965" cx="238.621579"/>
  </g>
  <g id="Ellipse_4_copy_16">
   <circle id="svg_13" fill="#db7ab9" transform="rotate(-9.220000267028809 43.971607208251925,48.17096710205081) " r="6.02" cy="118.980965" cx="107.071579"/>
  </g>
  <g id="Ellipse_4_copy_16-2">
   <circle id="svg_14" fill="#dd6a3e" transform="rotate(-9.220000267028809 16.431621551513555,83.24100494384766) " r="6.02" cy="342.430967" cx="283.24158"/>
  </g>
  <g id="Ellipse_4_copy_12">
   <path id="svg_15" fill="#487ff6" d="m78.341579,423.680965a4.57,4.57 0 1 0 4.57,4.57a4.57,4.57 0 0 0 -4.57,-4.57z"/>
  </g>
  <g id="Ellipse_4_copy_11">
   <path id="svg_16" fill="#f1d433" d="m324.501579,101.940965a3.12,3.12 0 1 0 3.12,3.11a3.11,3.11 0 0 0 -3.12,-3.11z"/>
  </g>
  <g id="Ellipse_4_copy_18">
   <path id="svg_17" fill="#f1d433" d="m209.001579,159.270965a3.12,3.12 0 1 0 3.11,3.11a3.11,3.11 0 0 0 -3.11,-3.11z"/>
  </g>
  <g id="Ellipse_4_copy_8">
   <path id="svg_18" fill="#db7ab9" d="m329.881579,186.070965a3.12,3.12 0 1 0 3.12,3.08a3.12,3.12 0 0 0 -3.12,-3.08z"/>
  </g>
  <g id="Ellipse_4_copy_8-2">
   <path id="svg_19" fill="#db7ab9" d="m289.911579,54.920965a3.12,3.12 0 1 0 3.12,3.12a3.12,3.12 0 0 0 -3.12,-3.12z"/>
  </g>
  <g id="Ellipse_4_copy_22">
   <path id="svg_20" fill="#487ff6" d="m156.241579,134.340965a3.12,3.12 0 1 0 3.11,3.12a3.12,3.12 0 0 0 -3.11,-3.12z"/>
  </g>
  <g id="Ellipse_4_copy_21">
   <path id="svg_21" fill="#d87faf" d="m280.031579,443.060965a3.12,3.12 0 1 0 3.12,3.11a3.11,3.11 0 0 0 -3.12,-3.11z"/>
  </g>
  <g id="Ellipse_4_copy_20">
   <path id="svg_22" fill="#db7ab9" d="m75.121579,246.920965a3.12,3.12 0 1 0 3.11,3.12a3.12,3.12 0 0 0 -3.11,-3.12z"/>
  </g>
  <g id="Ellipse_4_copy_7">
   <circle id="svg_23" fill="#f1d433" r="3.12" cy="379.560965" cx="94.211579"/>
  </g>
  <g id="Ellipse_4_copy">
   <circle id="svg_24" fill="#f1d433" r="13.5" cy="203.510965" cx="114.691579"/>
  </g>
  <g id="Ellipse_4_copy_4">
   <circle id="svg_25" fill="#f1d433" transform="rotate(-45 -1.298399925232113,267.58084106445307) " r="7.06" cy="450.150967" cx="248.951576"/>
  </g>
  <g id="Ellipse_4_copy_4-2">
   <path id="svg_26" fill="#f1d433" d="m90.091579,44.000965a7.06,7.06 0 1 0 7.06,7.06a7.06,7.06 0 0 0 -7.06,-7.06z"/>
  </g>
  <g id="Ellipse_4_copy_4-3">
   <circle id="svg_27" fill="#487ff6" transform="rotate(-67.5 -168.2389068603515,248.55068969726568) " r="7.06" cy="520.930968" cx="-121.418426"/>
  </g>
  <g id="Ellipse_4_copy_4-4">
   <path id="svg_28" fill="#487ff6" d="m146.771579,446.210965a7.06,7.06 0 1 0 7.06,7.06a7.06,7.06 0 0 0 -7.06,-7.06z"/>
  </g>
 </g>
</svg>