<svg width="26" height="12.16" xmlns="http://www.w3.org/2000/svg">
 <title>rightarrow</title>

 <g>
  <title>background</title>
  <rect fill="none" id="canvas_background" height="14.16" width="28" y="-1" x="-1"/>
 </g>
 <g>
  <title>Layer 1</title>
  <g id="Rounded_Rectangle_3_copy">
   <g id="Rounded_Rectangle_3_copy-2">
    <path id="svg_162" fill="#0480fb" fill-rule="evenodd" d="m23.02,5.985l-0.07,-0.07l-0.15,-0.15a0.49,0.49 0 0 0 -0.14,-0.11l-5.36,-4.95a0.41,0.41 0 0 0 -0.56,0.08l-0.2,0.21a0.4,0.4 0 0 0 0,0.56l4.45,4.11l-17,0a0.47,0.47 0 0 0 -0.48,0.48l0,0.24a0.47,0.47 0 0 0 0.48,0.48l17,0l-4.45,4.11a0.4,0.4 0 0 0 0,0.56l0.2,0.21a0.41,0.41 0 0 0 0.56,0.08l5.36,-4.95a0.49,0.49 0 0 0 0.14,-0.11l0.15,-0.15l0.07,-0.07a0.44,0.44 0 0 0 0,-0.56z"/>
   </g>
  </g>
 </g>
</svg>