<svg width="1190.08" height="447.8" xmlns="http://www.w3.org/2000/svg">
 <g>
  <rect fill="none" id="canvas_background" height="402" width="582" y="-1" x="-1"/>
 </g>
 <g>
  <path stroke="null" id="svg_1" fill="#ff6633" d="m483.778826,138.422525c-208.610685,-87.871582 -384.208555,-65.568992 -495.565833,-30.916434c-1.131216,27.78224 -5.458894,55.315405 -9.931865,82.73441c-4.597509,28.135096 -9.340312,56.332461 -10.907409,84.830791c-1.390669,25.945312 1.193484,51.164155 5.739103,76.683964c7.897753,44.262702 19.510874,90.818969 10.502662,135.590199c34.912012,-0.363234 65.268026,-0.518906 72.71952,-0.601931c161.09963,-1.82655 322.230394,-1.899197 483.340402,-1.971844s322.25115,0.280209 483.35078,1.971844q70.675029,0.321722 141.329302,2.15865q17.372981,-0.093403 34.683693,0.83025l3.040791,-464.732425s-356.415937,265.866799 -718.301146,113.422525z"/>
 </g>
</svg>