<?xml version="1.0" encoding="utf-8"?>
<!-- Generator: Adobe Illustrator 23.0.6, SVG Export Plug-In . SVG Version: 6.00 Build 0)  -->
<svg version="1.1" id="Слой_1" xmlns="http://www.w3.org/2000/svg" xmlns:xlink="http://www.w3.org/1999/xlink" x="0px" y="0px"
	 viewBox="0 0 337.2 78.9" style="enable-background:new 0 0 337.2 78.9;" xml:space="preserve">
<style type="text/css">
	.st0{fill:none;}
	.st1{fill:#487FF6;}
</style>
<g>
	<path class="st0" d="M-1-49v80.6c85.1-0.6,185.8-0.8,199-0.8c75.5,0,151.1,0.1,226.6,0.9c-14.7-0.2,93.8,0.4,93.9,2.3
		c1.1,50.3,5.9,100.7,2,151c-14.5,1.3-29.1,1.8-43.8,1.6c-16.7,0.2-33.4,0.4-50.1,0.6c-75.5,0.9-151.1,0.9-226.6,0.9
		c-67,0-134-0.1-201-0.7V353h582V-49H-1z"/>
</g>
<g>
	<path class="st1" d="M132.2,32.4C70.1,8.5,17.4,13.1-17.5,22.2c0,19.2,0,38.5-0.1,57.4C75.2,79,184.7,78.8,199,78.8
		c52.3,0,104.7,0,157,0.3L356.6,0C356.6,0,245.2,76,132.2,32.4z"/>
</g>
</svg>
