<svg id="Слой_1" data-name="Слой 1" xmlns="http://www.w3.org/2000/svg" viewBox="0 0 261 447.2"><title>wave</title><g id="Ellipse_3" data-name="Ellipse 3"><circle cx="10.91" cy="134.79" r="5.4" style="fill:#dd6a3e"/></g><g id="Ellipse_3-2" data-name="Ellipse 3"><circle cx="180.65" cy="43.62" r="5.4" transform="translate(-22.15 22.65) rotate(-9.22)" style="fill:#dd6a3e"/></g><g id="Ellipse_3_copy" data-name="Ellipse 3 copy"><circle cx="217.8" cy="74.14" r="5.4" style="fill:#487ff6"/></g><g id="Ellipse_3_copy_2" data-name="Ellipse 3 copy 2"><path d="M258.28,431.41a5.4,5.4,0,1,0,5.4,5.4A5.4,5.4,0,0,0,258.28,431.41Z" transform="translate(-17.5 -6.85)" style="fill:#487ff6"/></g><g id="Ellipse_3_copy_2-2" data-name="Ellipse 3 copy 2"><circle cx="121.1" cy="33.23" r="5.4" transform="translate(-21.26 12.98) rotate(-9.22)" style="fill:#487ff6"/></g><g id="Ellipse_3_copy_3" data-name="Ellipse 3 copy 3"><circle cx="163.01" cy="364.37" r="5.4" transform="translate(-42.92 5.62) rotate(-4.07)" style="fill:#487ff6"/></g><g id="Ellipse_4" data-name="Ellipse 4"><circle cx="247.55" cy="323.03" r="10.59" transform="translate(-48.13 19.12) rotate(-5.65)" style="fill:#db7ab9"/></g><g id="Ellipse_4_copy_14" data-name="Ellipse 4 copy 14"><path d="M180.67,383.48a7.69,7.69,0,1,0,7.68,7.68A7.68,7.68,0,0,0,180.67,383.48Z" transform="translate(-17.5 -6.85)" style="fill:#f1d433"/></g><g id="Ellipse_4_copy_14-2" data-name="Ellipse 4 copy 14"><path d="M173,429.2a7.69,7.69,0,1,0,7.69,7.69A7.68,7.68,0,0,0,173,429.2Z" transform="translate(-17.5 -6.85)" style="fill:#f1d433"/></g><g id="Ellipse_4_copy_15" data-name="Ellipse 4 copy 15"><circle cx="82.82" cy="343.94" r="9.35" transform="translate(-287.45 363.75) rotate(-80.78)" style="fill:#dd6a3e"/></g><g id="Ellipse_4_copy_15-2" data-name="Ellipse 4 copy 15"><circle cx="29.45" cy="437.85" r="9.35" style="fill:#dd6a3e"/></g><g id="Ellipse_4_copy_17" data-name="Ellipse 4 copy 17"><circle cx="193.55" cy="122.33" r="9.35" transform="translate(-26.93 9.53) rotate(-4.73)" style="fill:#dd6a3e"/></g><g id="Ellipse_4_copy_16" data-name="Ellipse 4 copy 16"><circle cx="63.1" cy="70.81" r="6.02" transform="translate(-28.03 4.17) rotate(-9.22)" style="fill:#db7ab9"/></g><g id="Ellipse_4_copy_16-2" data-name="Ellipse 4 copy 16"><circle cx="266.81" cy="259.19" r="6.02" transform="translate(-55.57 39.24) rotate(-9.22)" style="fill:#dd6a3e"/></g><g id="Ellipse_4_copy_12" data-name="Ellipse 4 copy 12"><path d="M23.84,386.53a4.57,4.57,0,1,0,4.57,4.57A4.57,4.57,0,0,0,23.84,386.53Z" transform="translate(-17.5 -6.85)" style="fill:#487ff6"/></g><g id="Ellipse_4_copy_11" data-name="Ellipse 4 copy 11"><path d="M270,64.79a3.12,3.12,0,1,0,3.12,3.11A3.11,3.11,0,0,0,270,64.79Z" transform="translate(-17.5 -6.85)" style="fill:#f1d433"/></g><g id="Ellipse_4_copy_18" data-name="Ellipse 4 copy 18"><path d="M154.5,122.12a3.12,3.12,0,1,0,3.11,3.11A3.11,3.11,0,0,0,154.5,122.12Z" transform="translate(-17.5 -6.85)" style="fill:#f1d433"/></g><g id="Ellipse_4_copy_8" data-name="Ellipse 4 copy 8"><path d="M275.38,148.92A3.12,3.12,0,1,0,278.5,152,3.12,3.12,0,0,0,275.38,148.92Z" transform="translate(-17.5 -6.85)" style="fill:#db7ab9"/></g><g id="Ellipse_4_copy_8-2" data-name="Ellipse 4 copy 8"><path d="M235.41,17.77a3.12,3.12,0,1,0,3.12,3.12A3.12,3.12,0,0,0,235.41,17.77Z" transform="translate(-17.5 -6.85)" style="fill:#db7ab9"/></g><g id="Ellipse_4_copy_22" data-name="Ellipse 4 copy 22"><path d="M101.74,97.19a3.12,3.12,0,1,0,3.11,3.12A3.12,3.12,0,0,0,101.74,97.19Z" transform="translate(-17.5 -6.85)" style="fill:#487ff6"/></g><g id="Ellipse_4_copy_21" data-name="Ellipse 4 copy 21"><path d="M225.53,405.91a3.12,3.12,0,1,0,3.12,3.11A3.11,3.11,0,0,0,225.53,405.91Z" transform="translate(-17.5 -6.85)" style="fill:#d87faf"/></g><g id="Ellipse_4_copy_20" data-name="Ellipse 4 copy 20"><path d="M20.62,209.77a3.12,3.12,0,1,0,3.11,3.12A3.12,3.12,0,0,0,20.62,209.77Z" transform="translate(-17.5 -6.85)" style="fill:#db7ab9"/></g><g id="Ellipse_4_copy_7" data-name="Ellipse 4 copy 7"><circle cx="22.21" cy="335.56" r="3.12" style="fill:#f1d433"/></g><g id="Ellipse_4_copy" data-name="Ellipse 4 copy"><circle cx="42.69" cy="159.51" r="13.5" style="fill:#f1d433"/></g><g id="Ellipse_4_copy_4" data-name="Ellipse 4 copy 4"><circle cx="250.25" cy="182.57" r="7.06" transform="translate(-73.3 223.58) rotate(-45)" style="fill:#f1d433"/></g><g id="Ellipse_4_copy_4-2" data-name="Ellipse 4 copy 4"><path d="M35.59,6.85a7.06,7.06,0,1,0,7.06,7.06A7.06,7.06,0,0,0,35.59,6.85Z" transform="translate(-17.5 -6.85)" style="fill:#f1d433"/></g><g id="Ellipse_4_copy_4-3" data-name="Ellipse 4 copy 4"><circle cx="46.82" cy="272.38" r="7.06" transform="translate(-240.24 204.55) rotate(-67.5)" style="fill:#487ff6"/></g><g id="Ellipse_4_copy_4-4" data-name="Ellipse 4 copy 4"><path d="M92.27,409.06a7.06,7.06,0,1,0,7.06,7.06A7.06,7.06,0,0,0,92.27,409.06Z" transform="translate(-17.5 -6.85)" style="fill:#487ff6"/></g></svg>