<svg width="337.2" height="126.88" xmlns="http://www.w3.org/2000/svg">
 <g>
  <rect fill="none" id="canvas_background" height="402" width="582" y="-1" x="-1"/>
 </g>
 <g>
  <path stroke="null" id="svg_1" fill="#f63" d="m136.784343,32.439565c-59.652348,-25.128355 -109.867159,-18.759852 -141.720151,-8.871912a197.444557,197.444557 0 0 1 -2.838593,23.682872a228.250097,228.250097 0 0 0 -3.142354,24.25897a95.098097,95.098097 0 0 0 1.696871,21.933629c2.262495,12.663685 5.582915,25.97679 3.006185,38.755695c9.98221,-0.104745 18.665581,-0.146643 20.791907,-0.178067c46.087854,-0.513251 92.175708,-0.5342 138.263562,-0.555149s92.175708,0.073322 138.263562,0.555149q20.226283,0.094271 40.421143,0.617996c3.309946,0 6.619892,0.062847 9.919363,0.240914l0.754165,-132.879663s-101.927479,76.034485 -205.415661,32.439565z"/>
 </g>
</svg>