<svg width="10" height="10.16" id="1" xmlns="http://www.w3.org/2000/svg" viewBox="0 0 19.68 11.28"><g id="Rounded_Rectangle_3_copy" data-name="Rounded Rectangle 3 copy"><path d="M19.57,5.36l-.07-.07-.15-.15A.49.49,0,0,0,19.21,5L13.85.08a.41.41,0,0,0-.56.08l-.2.21a.41.41,0,0,0,0,.57L17.52,5H.48A.48.48,0,0,0,0,5.52v.24a.47.47,0,0,0,.48.48h17l-4.45,4.11a.4.4,0,0,0,0,.56l.2.22a.41.41,0,0,0,.56.07l5.36-4.95a.49.49,0,0,0,.14-.11L19.5,6l.07-.07a.32.32,0,0,0,.1-.28A.33.33,0,0,0,19.57,5.36Z" transform="translate(0 0)" style="fill:#487ff6;fill-rule:evenodd"/></g></svg>