<svg width="10" height="10.16" id="2" xmlns="http://www.w3.org/2000/svg" viewBox="0 0 19.68 11.28"><g id="Rounded_Rectangle_3" data-name="Rounded Rectangle 3"><path d="M19.2,5h-17L6.61.94a.42.42,0,0,0,0-.57L6.39.16A.41.41,0,0,0,5.83.08L.46,5a.49.49,0,0,0-.14.11l-.14.15L.1,5.36a.36.36,0,0,0-.1.28.35.35,0,0,0,.1.28L.18,6l.14.15a.49.49,0,0,0,.14.11L5.83,11.2a.41.41,0,0,0,.56-.07l.19-.22a.41.41,0,0,0,0-.56L2.15,6.24H19.2a.48.48,0,0,0,.48-.48V5.52A.49.49,0,0,0,19.2,5Z" style="fill:#487ff6;fill-rule:evenodd"/></g></svg>